<?xml version="1.0" encoding="utf-8"?>
<!-- Generator: Adobe Illustrator 25.2.0, SVG Export Plug-In . SVG Version: 6.00 Build 0)  -->
<svg version="1.1" id="Layer_1" xmlns="http://www.w3.org/2000/svg" xmlns:xlink="http://www.w3.org/1999/xlink" x="0px" y="0px"
	 viewBox="0 0 351.61 350.19" style="enable-background:new 0 0 351.61 350.19;" xml:space="preserve">
<style type="text/css">
	.st0{fill:#FFFFFF;}
</style>
<g>
	<path class="st0" d="M250.12,168.83c12.49-11.62,18.74-26.87,18.74-45.77c0-18.59-6.25-33.7-18.74-45.33
		c-12.5-11.62-29.35-17.43-50.56-17.43H86.67v99.81H56.16v26.15h30.51v105.04h30.51V186.27h82.38
		C220.77,186.27,237.62,180.46,250.12,168.83z M117.18,160.55V86.02h76.71c14.53,0,25.64,3.42,33.34,10.24
		c7.7,6.83,11.55,15.91,11.55,27.24c0,11.05-3.86,19.98-11.55,26.81c-7.7,6.83-18.82,10.24-33.34,10.24H117.18z"/>
	<path class="st0" d="M133.31,249.03h77.58c9.87,0,17.58-2.1,23.1-6.32c5.52-4.21,8.28-10.09,8.28-17.65
		c0-15.69-10.46-23.54-31.38-23.54h-77.58V249.03z"/>
	<path class="st0" d="M291.11,0H60.5C27.09,0,0,27.09,0,60.5v229.18c0,33.42,27.09,60.5,60.5,60.5h230.6
		c33.42,0,60.5-27.09,60.5-60.5V60.5C351.61,27.09,324.52,0,291.11,0z M284.99,284.99C267.26,299.66,242.85,307,211.76,307H70.11
		V201.52H40.03v-57.1h30.07V44.61h129.02c18.59,0,34.5,3.49,47.73,10.46c13.22,6.97,23.17,16.42,29.86,28.33
		c6.68,11.92,10.03,25.14,10.03,39.66c0,7.27-1.09,14.68-3.27,22.23c-2.18,7.56-4.87,13.66-8.06,18.31
		c24.12,14.82,36.18,35.3,36.18,61.46C311.58,250.34,302.71,270.32,284.99,284.99z"/>
	<path class="st0" d="M215.25,107.37c-4.36-3.77-10.75-5.67-19.18-5.67h-62.77v43.15h62.77c17.14,0,25.72-7.12,25.72-21.36
		C221.79,116.53,219.61,111.15,215.25,107.37z"/>
	<path class="st0" d="M264.94,177.55c-5.52,6.39-13.51,11.77-23.97,16.13c5.23,2.91,9.59,7.05,13.08,12.42
		c3.49,5.38,5.23,11.7,5.23,18.96c0,12.5-4.43,22.23-13.29,29.2c-8.87,6.97-21.29,10.46-37.27,10.46h-75.4v26.59h81.94
		c23.54,0,42.5-6.17,56.88-18.52c14.38-12.35,21.58-28.26,21.58-47.73c0-9.59-2.61-18.74-7.85-27.46
		C280.63,188.88,273.66,182.2,264.94,177.55z"/>
</g>
</svg>
